<?xml version="1.0" encoding="UTF-8"?>
<svg width="12px" height="12px" viewBox="0 0 12 12" version="1.1" xmlns="http://www.w3.org/2000/svg" xmlns:xlink="http://www.w3.org/1999/xlink">
  <g id="delete" fill="#424242" fill-rule="nonzero">
    <path d="M9.58344828,12 L2.42482759,12 C1.99586207,12 1.59034483,11.8434783 1.28137931,11.557971 C0.957241379,11.257971 0.779310345,10.8536232 0.779310345,10.4202899 L0.779310345,3.11304348 C0.779310345,2.85217391 0.980689655,2.63913043 1.23034483,2.63913043 C1.48,2.63913043 1.68137931,2.85072464 1.68137931,3.11304348 L1.68137931,10.4202899 C1.68137931,10.7695652 2.01517241,11.0536232 2.4262069,11.0536232 L9.5862069,11.0536232 C9.99724138,11.0536232 10.3310345,10.7695652 10.3310345,10.4202899 L10.3310345,3.11304348 C10.3310345,2.85217391 10.5324138,2.63913043 10.782069,2.63913043 C11.0317241,2.63913043 11.2331034,2.85072464 11.2331034,3.11304348 L11.2331034,10.4202899 C11.2303448,11.2913043 10.4910345,12 9.58344828,12 L9.58344828,12 Z M8.43862069,0.949275362 L3.40965517,0.949275362 C3.16137931,0.949275362 2.95862069,0.737681159 2.95862069,0.475362319 C2.95862069,0.213043478 3.16,0.00144927536 3.40965517,0.00144927536 L8.43862069,0.00144927536 C8.68689655,0.00144927536 8.88965517,0.213043478 8.88965517,0.475362319 C8.88965517,0.737681159 8.68827586,0.949275362 8.43862069,0.949275362 Z"></path>
    <path d="M4.24965517,10.3826087 C4.00137931,10.3826087 3.79862069,10.1710145 3.79862069,9.90869565 L3.79862069,5.45942029 C3.79862069,5.19855072 4,4.98550725 4.24965517,4.98550725 C4.49931034,4.98550725 4.70068966,5.19710145 4.70068966,5.45942029 L4.70068966,9.90869565 C4.69931034,10.1710145 4.49793103,10.3826087 4.24965517,10.3826087 Z M7.75862069,10.3492754 C7.51034483,10.3492754 7.30758621,10.1376812 7.30758621,9.87536232 L7.30758621,5.42608696 C7.30758621,5.16521739 7.50896552,4.95217391 7.75862069,4.95217391 C8.00827586,4.95217391 8.20965517,5.16376812 8.20965517,5.42608696 L8.20965517,9.87536232 C8.20827586,10.1376812 8.00689655,10.3492754 7.75862069,10.3492754 Z"></path>
    <path d="M11.5489655,3.06521739 L0.459310345,3.06521739 C0.211034483,3.06521739 0.00827586207,2.85362319 0.00827586207,2.59130435 C0.00827586207,2.32898551 0.209655172,2.1173913 0.459310345,2.1173913 L11.5489655,2.1173913 C11.7972414,2.1173913 12,2.32898551 12,2.59130435 C12,2.85362319 11.7986207,3.06521739 11.5489655,3.06521739 Z"></path>
  </g>
</svg>