<svg xmlns="http://www.w3.org/2000/svg" width="12" height="12"><path fill="#424242" fill-rule="evenodd" d="M6.181 4.214a1.856 1.856 0 00-1.85 1.019c-.333.685-.188 1.5.364 2.036.551.536 1.39.677 2.094.353a1.786 1.786 0 001.048-1.798c-.088-.851-.78-1.524-1.656-1.61zM10.626 6c0 .195-.016.39-.044.583l1.304.994a.297.297 0 01.07.386l-1.233 2.074a.316.316 0 01-.379.13L9.05 9.658a.476.476 0 00-.437.05c-.198.132-.406.25-.622.35a.448.448 0 00-.254.341l-.194 1.343a.317.317 0 01-.308.257H4.766a.318.318 0 01-.308-.249l-.194-1.34a.452.452 0 00-.26-.343 4.511 4.511 0 01-.618-.352.473.473 0 00-.436-.048l-1.295.506a.316.316 0 01-.38-.128L.043 7.97a.297.297 0 01.07-.385l1.103-.842a.444.444 0 00.173-.394 3.717 3.717 0 010-.697.443.443 0 00-.175-.39L.111 4.42a.297.297 0 01-.068-.384l1.234-2.074a.316.316 0 01.379-.13l1.295.508c.145.056.31.038.437-.05.198-.132.406-.25.622-.35a.448.448 0 00.254-.341L4.458.257A.317.317 0 014.766 0h2.468c.15.003.278.106.308.249l.194 1.34c.022.15.12.278.26.343.215.101.422.22.618.352a.473.473 0 00.436.048l1.295-.506a.316.316 0 01.38.128l1.233 2.075a.297.297 0 01-.07.385l-1.103.842a.444.444 0 00-.175.394c.01.116.016.233.016.35z"/></svg>