<?xml version="1.0" standalone="no"?><!DOCTYPE svg PUBLIC "-//W3C//DTD SVG 1.1//EN" "http://www.w3.org/Graphics/SVG/1.1/DTD/svg11.dtd"><svg t="1571815089176" class="icon" viewBox="0 0 1024 1024" version="1.1" xmlns="http://www.w3.org/2000/svg" p-id="14933" xmlns:xlink="http://www.w3.org/1999/xlink" width="256" height="256"><defs><style type="text/css"></style></defs><path d="M940.8 521.6l-448-448C486.4 67.2 480 64 470.4 64L124.8 64C92.8 64 64 92.8 64 124.8l0 345.6c0 9.6 3.2 16 9.6 22.4l448 448c12.8 12.8 28.8 19.2 44.8 19.2 16 0 32-6.4 44.8-19.2L940.8 608C966.4 585.6 966.4 544 940.8 521.6zM566.4 896 128 457.6 128 128l329.6 0L896 566.4 566.4 896z" p-id="14934" fill="#424242"></path><path d="M288 192C233.6 192 192 233.6 192 288s41.6 96 96 96 96-41.6 96-96S342.4 192 288 192zM288 320c-19.2 0-32-12.8-32-32s12.8-32 32-32 32 12.8 32 32S307.2 320 288 320z" p-id="14935" fill="#424242"></path></svg>